PathFileType	4	(X/Y/Z)	/Users/mathieubourgeois/Desktop/Analyse/Traitement/Sujet_01/Data/Transformed_Sujet_01_velo_60.trc
DataRate	CameraRate	NumFrames	NumMarkers	Units	OrigDataRate	OrigDataStartFrame	OrigNumFrames
120.000000	120.000000	4	36	mm	120.000000	1689	1931
Frame#	Time	C7			RFHD			LFHD			RBHD			LBHD			RSHO			LSHO			CLAV			STRN			T10			RBWT			LBWT			RFWT			LFWT			RRAD			RWRA			RWRB			RCAR			RHUM			LHUM			LRAD			LWRA			LWRB			LCAR			RKNI			RKNE			LKNI			LKNE			RANE			RANI			RTOE			RHEE			LTOE			LANI			LANE			LHEE			
		X1	Y1	Z1	X2	Y2	Z2	X3	Y3	Z3	X4	Y4	Z4	X5	Y5	Z5	X6	Y6	Z6	X7	Y7	Z7	X8	Y8	Z8	X9	Y9	Z9	X10	Y10	Z10	X11	Y11	Z11	X12	Y12	Z12	X13	Y13	Z13	X14	Y14	Z14	X15	Y15	Z15	X16	Y16	Z16	X17	Y17	Z17	X18	Y18	Z18	X19	Y19	Z19	X20	Y20	Z20	X21	Y21	Z21	X22	Y22	Z22	X23	Y23	Z23	X24	Y24	Z24	X25	Y25	Z25	X26	Y26	Z26	X27	Y27	Z27	X28	Y28	Z28	X29	Y29	Z29	X30	Y30	Z30	X31	Y31	Z31	X32	Y32	Z32	X33	Y33	Z33	X34	Y34	Z34	X35	Y35	Z35	X36	Y36	Z36	

1690	14.075	-27.6191215515137	1457.9580078125	245.4285125732421	172.1923828125	1464.867309570312	301.7984619140624	172.6327972412109	1460.062377929688	176.8821105957031	41.65460205078121	1543.67236328125	305.4142150878905	36.20340728759763	1541.078857421875	173.7121276855468	-9.487135887146039	1388.597900390625	348.9448852539062	-23.43703651428224	1374.091552734375	130.6499481201171	1.4846986532211	1323.090698242188	247.3597259521484	-49.43958282470706	1221.121337890625	257.9379272460937	-232.9087219238282	1384.056884765625	262.9312133789061	-424.7984924316407	1109.135375976562	330.3757324218749	-423.7986450195312	1102.1689453125	211.0374755859374	-253.9524230957032	1079.033447265625	383.500030517578	-241.3202667236328	1074.19677734375	159.2770843505859	92.93458557128901	1142.350830078125	454.1437377929687	296.9316101074218	1028.335571289062	388.9998779296875	324.3726196289062	1049.149291992188	445.9905700683594	399.6536254882812	1033.953857421875	374.57080078125	142.7695007324218	1182.717529296875	475.0363769531249	150.7066192626953	1177.135131835938	48.39964675903315	99.7108917236328	1141.816528320312	64.36255645751947	319.2671813964844	1039.087158203125	130.8934326171875	341.5011291503906	1053.558349609375	68.14682769775388	404.3343200683594	1041.842529296875	137.8321838378906	2.487487554550128	853.3570556640625	346.6759338378906	-0.618579268455562	882.7521362304688	462.2942199707031	-84.84999084472659	691.441650390625	198.7385559082031	-111.9574127197266	681.591796875	74.8089981079101	-103.1224060058594	556.9201049804688	425.9768981933593	-73.44232940673832	560.5780029296875	348.6212158203124	79.73023223876947	503.7640991210938	434.4557495117187	-159.6809082031251	507.8748779296875	376.4657592773437	-131.3827667236328	243.5502166748047	131.8249511718749	-250.7583312988282	382.7379455566406	176.5343475341796	-273.3388061523438	380.5715637207031	101.5815963745117	-350.9938354492188	368.5671997070312	149.9918975830077	
1691	14.08333333333333	-27.68061637878421	1457.880126953125	245.355728149414	172.1741180419922	1464.712280273438	301.6507873535155	172.6193084716797	1459.886474609375	176.7593536376953	41.66495132446286	1543.533203125	305.2901611328124	36.19413757324217	1540.950805664062	173.5940856933593	-9.559761047363324	1388.516357421875	348.8358764648437	-23.46863555908205	1374.015869140625	130.5500488281249	1.373278617858857	1323.021728515625	247.2325439453124	-49.57460403442386	1221.0859375	257.8562316894531	-232.9703826904297	1383.966674804688	262.9633789062499	-424.4503784179688	1108.724609375	330.5689086914061	-423.593505859375	1101.880981445312	211.2366180419921	-253.5791320800782	1078.498291015625	383.653839111328	-241.1698303222657	1074.246337890625	159.403579711914	93.00183105468744	1142.272827148438	454.0762939453124	296.9736938476562	1028.26806640625	389.0408935546875	324.4271240234374	1049.080322265625	446.01904296875	399.6986083984374	1033.9345703125	374.5810546875	142.815689086914	1182.64013671875	474.9464721679687	150.83056640625	1177.162841796875	48.37391662597651	99.83273315429686	1141.821655273438	64.22771453857416	319.3626098632812	1039.118041992188	130.9063568115234	341.5773620605469	1053.576416015625	68.16669464111325	404.4143371582031	1041.796630859375	137.8630828857422	11.44481086730953	845.3544311523438	346.5528259277343	-1.739990949630794	875.8479614257812	462.8005065917968	-80.78926849365237	694.8905639648438	197.6536712646484	-108.3240127563477	685.3976440429688	73.57441711425776	-98.13728332519537	547.8082275390625	426.4743041992187	-65.53628540039067	552.72705078125	349.8265075683593	84.96494293212885	497.0072021484375	434.8844299316406	-154.3335266113282	498.3984069824219	377.0194091796874	-137.0534057617188	249.8004760742188	131.7581939697265	-254.5234985351563	390.5330505371094	176.2642517089843	-276.8652954101562	388.4778442382812	101.4604568481445	-354.5910034179688	378.0278625488281	149.1051940917968	
1692	14.09166666666667	-27.72019958496097	1457.847778320312	245.2576599121093	172.138198852539	1464.615600585938	301.484405517578	172.6237335205078	1459.770874023438	176.5829162597656	41.6805267333984	1543.467651367188	305.1555175781249	36.19781112670896	1540.888671875	173.4295654296874	-9.591167449951215	1388.469360351562	348.7039184570312	-23.4628372192383	1374.003662109375	130.3941955566405	1.272323250770539	1322.974731445312	247.0485382080077	-49.62714004516604	1221.074951171875	257.7788085937499	-232.9895935058594	1383.869750976562	262.9725341796874	-424.1105957031251	1108.40234375	330.7614440917968	-423.3161315917969	1101.610107421875	211.4377288818358	-253.0593872070313	1077.897094726562	383.8257751464843	-240.9623413085938	1074.25146484375	159.542739868164	93.07591247558588	1142.20654296875	454.0913391113281	297.0671997070312	1028.18115234375	389.0896911621094	324.4924316406249	1049.024169921875	446.0691223144531	399.7713623046874	1033.918090820312	374.630615234375	142.8644409179687	1182.593017578125	474.8971252441406	150.9460906982422	1177.176025390625	48.32675933837886	99.96088409423827	1141.814331054688	64.10067749023432	319.4712829589844	1039.152465820312	130.938720703125	341.694091796875	1053.599975585938	68.195442199707	404.5221862792969	1041.71435546875	137.9153137207031	18.04588890075679	836.7102661132812	346.4697875976562	-3.173912048339901	868.7129516601562	463.2930297851562	-76.56470489501956	698.5454711914062	196.5750274658203	-104.569709777832	689.4428100585938	72.38266754150385	-93.47039031982428	538.515380859375	427.0504150390624	-64.30557250976567	543.4991455078125	349.6655578613281	90.42398071289057	489.2923583984375	434.7475891113281	-148.5592346191407	488.41357421875	376.8766479492187	-142.3417510986328	256.3399658203125	131.7237396240234	-257.8735656738281	398.5387878417969	176.1065216064453	-280.0650329589844	396.7687683105469	101.3535156249999	-357.677001953125	387.4875183105469	148.4825439453124	
1693	14.1	-27.7259273529053	1457.888793945312	245.1639556884765	172.1671905517578	1464.579223632812	301.3086853027343	172.655288696289	1459.735595703125	176.3800048828124	41.74052810668942	1543.447998046875	304.921173095703	36.23497009277342	1540.879150390625	173.2143249511718	-9.557094573974652	1388.477783203125	348.5576782226562	-23.37766838073732	1374.092163085938	130.2081909179687	1.189988374710053	1323.013671875	246.8562927246093	-49.63637924194339	1221.116088867188	257.6860351562499	-232.9715576171875	1383.770751953125	262.9990234374999	-423.6253662109376	1108.066650390625	331.0653686523436	-422.9869995117188	1101.33251953125	211.7319946289061	-252.4754180908204	1077.326049804688	383.9929199218749	-240.7735290527344	1074.282348632812	159.7075042724609	93.17115020751947	1142.155639648438	454.0893249511718	297.1397094726562	1028.098510742188	389.1788330078125	324.5598144531249	1048.953857421875	446.1711120605469	399.8264770507812	1033.882690429688	374.7113037109375	142.9631652832031	1182.54638671875	474.8719482421874	151.0836181640625	1177.167602539062	48.21975708007808	100.0997619628906	1141.783813476562	63.95933532714838	319.5939025878906	1039.185668945312	131.0054779052734	341.7919616699219	1053.61279296875	68.25041961669919	404.6378173828125	1041.6435546875	138.003173828125	10.73692607879634	829.7756958007812	347.3959960937499	-4.483411788940487	860.6677856445312	464.2299804687499	-72.21746063232425	702.3367919921875	195.5740051269531	-100.7335052490235	693.718505859375	71.16717529296869	-89.18614196777349	529.0119018554688	427.5674438476562	-62.83650970458989	536.02685546875	350.3245544433593	95.24714660644526	481.4892578125	434.9665222167968	-143.7076110839844	478.6248779296875	377.2508850097656	-147.2106475830078	263.3293151855469	131.6936340332031	-260.7669067382812	406.760986328125	176.1331024169921	-282.88818359375	405.415771484375	101.3291091918945	-360.2228698730469	396.8199157714844	148.3131103515624	
